<mxfile host="Electron" agent="Mozilla/5.0 (X11; Linux x86_64) AppleWebKit/537.36 (KHTML, like Gecko) draw.io/24.7.17 Chrome/128.0.6613.36 Electron/32.0.1 Safari/537.36" scale="1" border="10" version="24.7.17">
  <diagram name="페이지-1" id="Rv94ZeHdXvJtW-SsgrfS">
    <mxGraphModel dx="2261" dy="843" grid="1" gridSize="10" guides="1" tooltips="1" connect="1" arrows="1" fold="1" page="1" pageScale="1" pageWidth="827" pageHeight="1169" math="0" shadow="0">
      <root>
        <mxCell id="0" />
        <mxCell id="1" parent="0" />
        <mxCell id="lGzPU3dBAmZDBw5_QE8P-1" value="" style="rounded=0;whiteSpace=wrap;html=1;fillColor=#f5f5f5;strokeColor=#666666;fontColor=#333333;" parent="1" vertex="1">
          <mxGeometry x="-250" y="40" width="1130" height="1100" as="geometry" />
        </mxCell>
        <mxCell id="lGzPU3dBAmZDBw5_QE8P-2" value="TOP" style="text;html=1;align=center;verticalAlign=middle;whiteSpace=wrap;rounded=0;fontSize=24;" parent="1" vertex="1">
          <mxGeometry x="-250" y="40" width="1060" height="30" as="geometry" />
        </mxCell>
        <mxCell id="lGzPU3dBAmZDBw5_QE8P-3" value="&lt;span style=&quot;font-size: 16px;&quot;&gt;iMEM&lt;/span&gt;&lt;div&gt;&lt;span style=&quot;font-size: 16px;&quot;&gt;32x4096&lt;/span&gt;&lt;/div&gt;" style="rounded=0;whiteSpace=wrap;html=1;fillColor=#d5e8d4;strokeColor=#82b366;" parent="1" vertex="1">
          <mxGeometry x="-50" y="70" width="810" height="100" as="geometry" />
        </mxCell>
        <mxCell id="lGzPU3dBAmZDBw5_QE8P-4" value="" style="rounded=0;whiteSpace=wrap;html=1;" parent="1" vertex="1">
          <mxGeometry x="-50" y="230" width="810" height="887" as="geometry" />
        </mxCell>
        <mxCell id="lGzPU3dBAmZDBw5_QE8P-5" value="&lt;font style=&quot;font-size: 16px;&quot;&gt;iCPU&lt;/font&gt;" style="text;html=1;align=center;verticalAlign=middle;whiteSpace=wrap;rounded=0;" parent="1" vertex="1">
          <mxGeometry x="-90" y="230" width="780" height="30" as="geometry" />
        </mxCell>
        <mxCell id="Lg9KEerFZWgA4mFxaKmF-96" style="edgeStyle=orthogonalEdgeStyle;rounded=0;orthogonalLoop=1;jettySize=auto;html=1;exitX=0.25;exitY=0;exitDx=0;exitDy=0;entryX=0;entryY=0.25;entryDx=0;entryDy=0;" parent="1" source="thysIUYuFrmhhNMiwp32-3" target="Lg9KEerFZWgA4mFxaKmF-90" edge="1">
          <mxGeometry relative="1" as="geometry" />
        </mxCell>
        <mxCell id="thysIUYuFrmhhNMiwp32-3" value="alu_inst" style="shape=trapezoid;perimeter=trapezoidPerimeter;whiteSpace=wrap;html=1;fixedSize=1;rotation=90;horizontal=0;fillColor=#fff2cc;strokeColor=#d6b656;" parent="1" vertex="1">
          <mxGeometry x="446" y="619" width="200" height="70" as="geometry" />
        </mxCell>
        <mxCell id="Lg9KEerFZWgA4mFxaKmF-45" style="edgeStyle=orthogonalEdgeStyle;rounded=0;orthogonalLoop=1;jettySize=auto;html=1;exitX=0.75;exitY=1;exitDx=0;exitDy=0;entryX=0.25;entryY=1;entryDx=0;entryDy=0;" parent="1" source="thysIUYuFrmhhNMiwp32-4" target="Lg9KEerFZWgA4mFxaKmF-27" edge="1">
          <mxGeometry relative="1" as="geometry">
            <Array as="points">
              <mxPoint x="201" y="390" />
              <mxPoint x="398" y="390" />
            </Array>
          </mxGeometry>
        </mxCell>
        <mxCell id="Lg9KEerFZWgA4mFxaKmF-57" value="imm" style="edgeLabel;html=1;align=center;verticalAlign=middle;resizable=0;points=[];" parent="Lg9KEerFZWgA4mFxaKmF-45" vertex="1" connectable="0">
          <mxGeometry x="-0.1669" y="1" relative="1" as="geometry">
            <mxPoint x="-109" y="-9" as="offset" />
          </mxGeometry>
        </mxCell>
        <mxCell id="Lg9KEerFZWgA4mFxaKmF-46" style="edgeStyle=orthogonalEdgeStyle;rounded=0;orthogonalLoop=1;jettySize=auto;html=1;exitX=1;exitY=0.25;exitDx=0;exitDy=0;entryX=0;entryY=0.25;entryDx=0;entryDy=0;" parent="1" source="thysIUYuFrmhhNMiwp32-4" target="Lg9KEerFZWgA4mFxaKmF-27" edge="1">
          <mxGeometry relative="1" as="geometry" />
        </mxCell>
        <mxCell id="Lg9KEerFZWgA4mFxaKmF-56" value="rs1" style="edgeLabel;html=1;align=center;verticalAlign=middle;resizable=0;points=[];" parent="Lg9KEerFZWgA4mFxaKmF-46" vertex="1" connectable="0">
          <mxGeometry x="-0.229" y="-1" relative="1" as="geometry">
            <mxPoint x="18" as="offset" />
          </mxGeometry>
        </mxCell>
        <mxCell id="Lg9KEerFZWgA4mFxaKmF-47" style="edgeStyle=orthogonalEdgeStyle;rounded=0;orthogonalLoop=1;jettySize=auto;html=1;exitX=1;exitY=0.5;exitDx=0;exitDy=0;entryX=0;entryY=0.5;entryDx=0;entryDy=0;" parent="1" source="thysIUYuFrmhhNMiwp32-4" target="Lg9KEerFZWgA4mFxaKmF-27" edge="1">
          <mxGeometry relative="1" as="geometry" />
        </mxCell>
        <mxCell id="Lg9KEerFZWgA4mFxaKmF-55" value="rs2" style="edgeLabel;html=1;align=center;verticalAlign=middle;resizable=0;points=[];" parent="Lg9KEerFZWgA4mFxaKmF-47" vertex="1" connectable="0">
          <mxGeometry x="-0.2014" y="2" relative="1" as="geometry">
            <mxPoint x="15" y="2" as="offset" />
          </mxGeometry>
        </mxCell>
        <mxCell id="Lg9KEerFZWgA4mFxaKmF-49" style="edgeStyle=orthogonalEdgeStyle;rounded=0;orthogonalLoop=1;jettySize=auto;html=1;exitX=1;exitY=0;exitDx=0;exitDy=0;entryX=0;entryY=0;entryDx=0;entryDy=0;" parent="1" source="thysIUYuFrmhhNMiwp32-4" target="Lg9KEerFZWgA4mFxaKmF-27" edge="1">
          <mxGeometry relative="1" as="geometry">
            <Array as="points">
              <mxPoint x="308" y="280" />
              <mxPoint x="308" y="280" />
            </Array>
          </mxGeometry>
        </mxCell>
        <mxCell id="Lg9KEerFZWgA4mFxaKmF-54" value="rd" style="edgeLabel;html=1;align=center;verticalAlign=middle;resizable=0;points=[];" parent="Lg9KEerFZWgA4mFxaKmF-49" vertex="1" connectable="0">
          <mxGeometry x="-0.1168" y="1" relative="1" as="geometry">
            <mxPoint x="8" y="1" as="offset" />
          </mxGeometry>
        </mxCell>
        <mxCell id="Lg9KEerFZWgA4mFxaKmF-50" style="edgeStyle=orthogonalEdgeStyle;rounded=0;orthogonalLoop=1;jettySize=auto;html=1;exitX=1;exitY=1;exitDx=0;exitDy=0;entryX=0;entryY=1;entryDx=0;entryDy=0;" parent="1" source="thysIUYuFrmhhNMiwp32-4" target="Lg9KEerFZWgA4mFxaKmF-27" edge="1">
          <mxGeometry relative="1" as="geometry">
            <Array as="points">
              <mxPoint x="288" y="370" />
              <mxPoint x="288" y="370" />
            </Array>
          </mxGeometry>
        </mxCell>
        <mxCell id="Lg9KEerFZWgA4mFxaKmF-53" value="funct3" style="edgeLabel;html=1;align=center;verticalAlign=middle;resizable=0;points=[];" parent="Lg9KEerFZWgA4mFxaKmF-50" vertex="1" connectable="0">
          <mxGeometry x="-0.4597" y="-2" relative="1" as="geometry">
            <mxPoint x="36" y="-2" as="offset" />
          </mxGeometry>
        </mxCell>
        <mxCell id="Lg9KEerFZWgA4mFxaKmF-51" style="edgeStyle=orthogonalEdgeStyle;rounded=0;orthogonalLoop=1;jettySize=auto;html=1;exitX=0.25;exitY=1;exitDx=0;exitDy=0;entryX=0.75;entryY=1;entryDx=0;entryDy=0;" parent="1" source="thysIUYuFrmhhNMiwp32-4" target="Lg9KEerFZWgA4mFxaKmF-27" edge="1">
          <mxGeometry relative="1" as="geometry">
            <Array as="points">
              <mxPoint x="96" y="410" />
              <mxPoint x="453" y="410" />
            </Array>
          </mxGeometry>
        </mxCell>
        <mxCell id="Lg9KEerFZWgA4mFxaKmF-61" value="op_code" style="edgeLabel;html=1;align=center;verticalAlign=middle;resizable=0;points=[];" parent="Lg9KEerFZWgA4mFxaKmF-51" vertex="1" connectable="0">
          <mxGeometry x="-0.9156" y="-1" relative="1" as="geometry">
            <mxPoint x="23" as="offset" />
          </mxGeometry>
        </mxCell>
        <mxCell id="Lg9KEerFZWgA4mFxaKmF-58" style="edgeStyle=orthogonalEdgeStyle;rounded=0;orthogonalLoop=1;jettySize=auto;html=1;exitX=1;exitY=0.75;exitDx=0;exitDy=0;entryX=0;entryY=0.75;entryDx=0;entryDy=0;" parent="1" source="thysIUYuFrmhhNMiwp32-4" target="Lg9KEerFZWgA4mFxaKmF-27" edge="1">
          <mxGeometry relative="1" as="geometry">
            <Array as="points">
              <mxPoint x="288" y="348" />
              <mxPoint x="288" y="348" />
            </Array>
          </mxGeometry>
        </mxCell>
        <mxCell id="Lg9KEerFZWgA4mFxaKmF-59" value="funct7" style="edgeLabel;html=1;align=center;verticalAlign=middle;resizable=0;points=[];" parent="Lg9KEerFZWgA4mFxaKmF-58" vertex="1" connectable="0">
          <mxGeometry x="-0.2703" y="1" relative="1" as="geometry">
            <mxPoint x="21" as="offset" />
          </mxGeometry>
        </mxCell>
        <mxCell id="Lg9KEerFZWgA4mFxaKmF-65" style="edgeStyle=orthogonalEdgeStyle;rounded=0;orthogonalLoop=1;jettySize=auto;html=1;exitX=0.25;exitY=1;exitDx=0;exitDy=0;entryX=0.5;entryY=0;entryDx=0;entryDy=0;" parent="1" source="thysIUYuFrmhhNMiwp32-4" target="Lg9KEerFZWgA4mFxaKmF-21" edge="1">
          <mxGeometry relative="1" as="geometry" />
        </mxCell>
        <mxCell id="Lg9KEerFZWgA4mFxaKmF-77" style="edgeStyle=orthogonalEdgeStyle;rounded=0;orthogonalLoop=1;jettySize=auto;html=1;exitX=0.75;exitY=1;exitDx=0;exitDy=0;entryX=0.25;entryY=1;entryDx=0;entryDy=0;" parent="1" source="thysIUYuFrmhhNMiwp32-4" target="H0akURLOZC4RYbcEf60T-19" edge="1">
          <mxGeometry relative="1" as="geometry" />
        </mxCell>
        <mxCell id="Lg9KEerFZWgA4mFxaKmF-75" style="edgeStyle=orthogonalEdgeStyle;rounded=0;orthogonalLoop=1;jettySize=auto;html=1;exitX=0.5;exitY=0;exitDx=0;exitDy=0;entryX=0.25;entryY=1;entryDx=0;entryDy=0;" parent="1" source="H0akURLOZC4RYbcEf60T-15" target="thysIUYuFrmhhNMiwp32-3" edge="1">
          <mxGeometry relative="1" as="geometry" />
        </mxCell>
        <mxCell id="H0akURLOZC4RYbcEf60T-15" value="" style="shape=trapezoid;perimeter=trapezoidPerimeter;whiteSpace=wrap;html=1;fixedSize=1;direction=south;" parent="1" vertex="1">
          <mxGeometry x="384" y="574" width="30" height="60" as="geometry" />
        </mxCell>
        <mxCell id="Lg9KEerFZWgA4mFxaKmF-76" style="edgeStyle=orthogonalEdgeStyle;rounded=0;orthogonalLoop=1;jettySize=auto;html=1;exitX=0.5;exitY=0;exitDx=0;exitDy=0;entryX=0.75;entryY=1;entryDx=0;entryDy=0;" parent="1" source="H0akURLOZC4RYbcEf60T-19" target="thysIUYuFrmhhNMiwp32-3" edge="1">
          <mxGeometry relative="1" as="geometry" />
        </mxCell>
        <mxCell id="H0akURLOZC4RYbcEf60T-19" value="" style="shape=trapezoid;perimeter=trapezoidPerimeter;whiteSpace=wrap;html=1;fixedSize=1;direction=south;" parent="1" vertex="1">
          <mxGeometry x="430" y="674" width="30" height="60" as="geometry" />
        </mxCell>
        <mxCell id="Lg9KEerFZWgA4mFxaKmF-78" style="edgeStyle=orthogonalEdgeStyle;rounded=0;orthogonalLoop=1;jettySize=auto;html=1;exitX=1;exitY=0.75;exitDx=0;exitDy=0;entryX=0.75;entryY=1;entryDx=0;entryDy=0;" parent="1" source="thysIUYuFrmhhNMiwp32-1" target="H0akURLOZC4RYbcEf60T-19" edge="1">
          <mxGeometry relative="1" as="geometry" />
        </mxCell>
        <mxCell id="Lg9KEerFZWgA4mFxaKmF-80" value="rs2_data" style="edgeLabel;html=1;align=center;verticalAlign=middle;resizable=0;points=[];" parent="Lg9KEerFZWgA4mFxaKmF-78" vertex="1" connectable="0">
          <mxGeometry x="-0.8692" relative="1" as="geometry">
            <mxPoint x="6" y="-8" as="offset" />
          </mxGeometry>
        </mxCell>
        <mxCell id="Lg9KEerFZWgA4mFxaKmF-79" style="edgeStyle=orthogonalEdgeStyle;rounded=0;orthogonalLoop=1;jettySize=auto;html=1;exitX=1;exitY=0.25;exitDx=0;exitDy=0;entryX=0.75;entryY=1;entryDx=0;entryDy=0;" parent="1" source="thysIUYuFrmhhNMiwp32-1" target="H0akURLOZC4RYbcEf60T-15" edge="1">
          <mxGeometry relative="1" as="geometry" />
        </mxCell>
        <mxCell id="Lg9KEerFZWgA4mFxaKmF-81" value="rs1_data" style="edgeLabel;html=1;align=center;verticalAlign=middle;resizable=0;points=[];" parent="Lg9KEerFZWgA4mFxaKmF-79" vertex="1" connectable="0">
          <mxGeometry x="-0.8144" relative="1" as="geometry">
            <mxPoint y="-8" as="offset" />
          </mxGeometry>
        </mxCell>
        <mxCell id="Lg9KEerFZWgA4mFxaKmF-112" style="edgeStyle=orthogonalEdgeStyle;rounded=0;orthogonalLoop=1;jettySize=auto;html=1;exitX=1;exitY=0.75;exitDx=0;exitDy=0;entryX=0.75;entryY=1;entryDx=0;entryDy=0;" parent="1" source="thysIUYuFrmhhNMiwp32-1" target="lGzPU3dBAmZDBw5_QE8P-3" edge="1">
          <mxGeometry relative="1" as="geometry">
            <Array as="points">
              <mxPoint x="790" y="1032" />
              <mxPoint x="790" y="190" />
              <mxPoint x="558" y="190" />
            </Array>
          </mxGeometry>
        </mxCell>
        <mxCell id="Lg9KEerFZWgA4mFxaKmF-113" value="write_data_mem" style="edgeLabel;html=1;align=center;verticalAlign=middle;resizable=0;points=[];labelBackgroundColor=#f5f5f5;" parent="Lg9KEerFZWgA4mFxaKmF-112" vertex="1" connectable="0">
          <mxGeometry x="0.9224" y="-2" relative="1" as="geometry">
            <mxPoint x="25" y="-6" as="offset" />
          </mxGeometry>
        </mxCell>
        <mxCell id="thysIUYuFrmhhNMiwp32-1" value="regfile_inst" style="rounded=0;whiteSpace=wrap;html=1;fillColor=#dae8fc;strokeColor=#6c8ebf;" parent="1" vertex="1">
          <mxGeometry x="30" y="829" width="90" height="270" as="geometry" />
        </mxCell>
        <mxCell id="Lg9KEerFZWgA4mFxaKmF-6" style="edgeStyle=orthogonalEdgeStyle;rounded=0;orthogonalLoop=1;jettySize=auto;html=1;exitX=1;exitY=0.25;exitDx=0;exitDy=0;entryX=0;entryY=0.25;entryDx=0;entryDy=0;" parent="1" source="Lg9KEerFZWgA4mFxaKmF-1" target="lGzPU3dBAmZDBw5_QE8P-3" edge="1">
          <mxGeometry relative="1" as="geometry" />
        </mxCell>
        <mxCell id="Lg9KEerFZWgA4mFxaKmF-64" style="edgeStyle=orthogonalEdgeStyle;rounded=0;orthogonalLoop=1;jettySize=auto;html=1;exitX=1;exitY=0.25;exitDx=0;exitDy=0;entryX=0;entryY=0.25;entryDx=0;entryDy=0;" parent="1" source="Lg9KEerFZWgA4mFxaKmF-1" target="Lg9KEerFZWgA4mFxaKmF-21" edge="1">
          <mxGeometry relative="1" as="geometry">
            <Array as="points">
              <mxPoint x="-70" y="280" />
              <mxPoint x="-70" y="473" />
              <mxPoint x="-4" y="473" />
            </Array>
          </mxGeometry>
        </mxCell>
        <mxCell id="Lg9KEerFZWgA4mFxaKmF-1" value="iPLL" style="rounded=0;whiteSpace=wrap;html=1;" parent="1" vertex="1">
          <mxGeometry x="-210" y="220" width="60" height="240" as="geometry" />
        </mxCell>
        <mxCell id="Lg9KEerFZWgA4mFxaKmF-2" value="" style="endArrow=classic;html=1;rounded=0;entryX=0;entryY=0.25;entryDx=0;entryDy=0;" parent="1" target="Lg9KEerFZWgA4mFxaKmF-1" edge="1">
          <mxGeometry width="50" height="50" relative="1" as="geometry">
            <mxPoint x="-400" y="280" as="sourcePoint" />
            <mxPoint x="170" y="330" as="targetPoint" />
          </mxGeometry>
        </mxCell>
        <mxCell id="Lg9KEerFZWgA4mFxaKmF-3" value="clk_125MHz" style="edgeLabel;html=1;align=center;verticalAlign=middle;resizable=0;points=[];" parent="Lg9KEerFZWgA4mFxaKmF-2" vertex="1" connectable="0">
          <mxGeometry x="-0.2947" relative="1" as="geometry">
            <mxPoint as="offset" />
          </mxGeometry>
        </mxCell>
        <mxCell id="Lg9KEerFZWgA4mFxaKmF-4" value="" style="endArrow=classic;html=1;rounded=0;entryX=0;entryY=0.75;entryDx=0;entryDy=0;" parent="1" target="Lg9KEerFZWgA4mFxaKmF-1" edge="1">
          <mxGeometry width="50" height="50" relative="1" as="geometry">
            <mxPoint x="-400" y="400" as="sourcePoint" />
            <mxPoint x="-280" y="400" as="targetPoint" />
          </mxGeometry>
        </mxCell>
        <mxCell id="Lg9KEerFZWgA4mFxaKmF-5" value="btn" style="edgeLabel;html=1;align=center;verticalAlign=middle;resizable=0;points=[];" parent="Lg9KEerFZWgA4mFxaKmF-4" vertex="1" connectable="0">
          <mxGeometry x="-0.2947" relative="1" as="geometry">
            <mxPoint as="offset" />
          </mxGeometry>
        </mxCell>
        <mxCell id="Lg9KEerFZWgA4mFxaKmF-9" value="" style="endArrow=none;html=1;rounded=0;entryX=0;entryY=0.5;entryDx=0;entryDy=0;entryPerimeter=0;endFill=0;" parent="1" target="Lg9KEerFZWgA4mFxaKmF-13" edge="1">
          <mxGeometry width="50" height="50" relative="1" as="geometry">
            <mxPoint x="-230" y="400" as="sourcePoint" />
            <mxPoint x="170" y="330" as="targetPoint" />
            <Array as="points">
              <mxPoint x="-230" y="533" />
            </Array>
          </mxGeometry>
        </mxCell>
        <mxCell id="Lg9KEerFZWgA4mFxaKmF-35" style="edgeStyle=orthogonalEdgeStyle;rounded=0;orthogonalLoop=1;jettySize=auto;html=1;exitX=1;exitY=0.5;exitDx=0;exitDy=0;exitPerimeter=0;entryX=0;entryY=0.75;entryDx=0;entryDy=0;" parent="1" source="Lg9KEerFZWgA4mFxaKmF-10" target="Lg9KEerFZWgA4mFxaKmF-21" edge="1">
          <mxGeometry relative="1" as="geometry" />
        </mxCell>
        <mxCell id="Lg9KEerFZWgA4mFxaKmF-36" value="async_reset_n" style="edgeLabel;html=1;align=center;verticalAlign=middle;resizable=0;points=[];" parent="Lg9KEerFZWgA4mFxaKmF-35" vertex="1" connectable="0">
          <mxGeometry x="-0.7006" y="-1" relative="1" as="geometry">
            <mxPoint x="14" y="-9" as="offset" />
          </mxGeometry>
        </mxCell>
        <mxCell id="Lg9KEerFZWgA4mFxaKmF-10" value="" style="verticalLabelPosition=bottom;shadow=0;dashed=0;align=center;html=1;verticalAlign=top;shape=mxgraph.electrical.logic_gates.logic_gate;operation=and;" parent="1" vertex="1">
          <mxGeometry x="-140" y="488" width="100" height="60" as="geometry" />
        </mxCell>
        <mxCell id="Lg9KEerFZWgA4mFxaKmF-11" style="edgeStyle=orthogonalEdgeStyle;rounded=0;orthogonalLoop=1;jettySize=auto;html=1;exitX=1;exitY=0.75;exitDx=0;exitDy=0;entryX=0;entryY=0.25;entryDx=0;entryDy=0;entryPerimeter=0;endArrow=none;endFill=0;" parent="1" source="Lg9KEerFZWgA4mFxaKmF-1" target="Lg9KEerFZWgA4mFxaKmF-10" edge="1">
          <mxGeometry relative="1" as="geometry">
            <Array as="points">
              <mxPoint x="-140" y="400" />
            </Array>
          </mxGeometry>
        </mxCell>
        <mxCell id="Lg9KEerFZWgA4mFxaKmF-13" value="" style="verticalLabelPosition=bottom;shadow=0;dashed=0;align=center;html=1;verticalAlign=top;shape=mxgraph.electrical.logic_gates.inverter_2" parent="1" vertex="1">
          <mxGeometry x="-180" y="523" width="40" height="20" as="geometry" />
        </mxCell>
        <mxCell id="Lg9KEerFZWgA4mFxaKmF-14" style="edgeStyle=orthogonalEdgeStyle;rounded=0;orthogonalLoop=1;jettySize=auto;html=1;exitX=1;exitY=0.5;exitDx=0;exitDy=0;exitPerimeter=0;entryX=0;entryY=0.75;entryDx=0;entryDy=0;entryPerimeter=0;" parent="1" source="Lg9KEerFZWgA4mFxaKmF-13" target="Lg9KEerFZWgA4mFxaKmF-10" edge="1">
          <mxGeometry relative="1" as="geometry" />
        </mxCell>
        <mxCell id="Lg9KEerFZWgA4mFxaKmF-88" style="edgeStyle=orthogonalEdgeStyle;rounded=0;orthogonalLoop=1;jettySize=auto;html=1;exitX=1;exitY=0.25;exitDx=0;exitDy=0;entryX=1;entryY=0.75;entryDx=0;entryDy=0;" parent="1" source="Lg9KEerFZWgA4mFxaKmF-18" target="lGzPU3dBAmZDBw5_QE8P-3" edge="1">
          <mxGeometry relative="1" as="geometry">
            <Array as="points">
              <mxPoint x="810" y="310" />
              <mxPoint x="810" y="145" />
            </Array>
          </mxGeometry>
        </mxCell>
        <mxCell id="Lg9KEerFZWgA4mFxaKmF-89" value="pc[13:2]" style="edgeLabel;html=1;align=center;verticalAlign=middle;resizable=0;points=[];labelBackgroundColor=#f5f5f5;" parent="Lg9KEerFZWgA4mFxaKmF-88" vertex="1" connectable="0">
          <mxGeometry x="0.5527" y="-1" relative="1" as="geometry">
            <mxPoint x="-20" y="-28" as="offset" />
          </mxGeometry>
        </mxCell>
        <mxCell id="Lg9KEerFZWgA4mFxaKmF-106" style="edgeStyle=orthogonalEdgeStyle;rounded=0;orthogonalLoop=1;jettySize=auto;html=1;exitX=1;exitY=0.75;exitDx=0;exitDy=0;entryX=0.5;entryY=1;entryDx=0;entryDy=0;" parent="1" source="Lg9KEerFZWgA4mFxaKmF-18" target="Lg9KEerFZWgA4mFxaKmF-101" edge="1">
          <mxGeometry relative="1" as="geometry">
            <Array as="points">
              <mxPoint x="740" y="410" />
              <mxPoint x="740" y="964" />
            </Array>
          </mxGeometry>
        </mxCell>
        <mxCell id="Lg9KEerFZWgA4mFxaKmF-107" value="pc+4" style="edgeLabel;html=1;align=center;verticalAlign=middle;resizable=0;points=[];" parent="Lg9KEerFZWgA4mFxaKmF-106" vertex="1" connectable="0">
          <mxGeometry x="0.7559" y="2" relative="1" as="geometry">
            <mxPoint x="-84" y="5" as="offset" />
          </mxGeometry>
        </mxCell>
        <mxCell id="Lg9KEerFZWgA4mFxaKmF-18" value="pc_inst" style="rounded=0;whiteSpace=wrap;html=1;fillColor=#e1d5e7;strokeColor=#9673a6;" parent="1" vertex="1">
          <mxGeometry x="630" y="260" width="80" height="200" as="geometry" />
        </mxCell>
        <mxCell id="Lg9KEerFZWgA4mFxaKmF-66" style="edgeStyle=orthogonalEdgeStyle;rounded=0;orthogonalLoop=1;jettySize=auto;html=1;exitX=1;exitY=0.5;exitDx=0;exitDy=0;entryX=0.5;entryY=1;entryDx=0;entryDy=0;" parent="1" source="Lg9KEerFZWgA4mFxaKmF-21" target="Lg9KEerFZWgA4mFxaKmF-27" edge="1">
          <mxGeometry relative="1" as="geometry" />
        </mxCell>
        <mxCell id="Lg9KEerFZWgA4mFxaKmF-67" value="c_state" style="edgeLabel;html=1;align=center;verticalAlign=middle;resizable=0;points=[];" parent="Lg9KEerFZWgA4mFxaKmF-66" vertex="1" connectable="0">
          <mxGeometry x="-0.848" relative="1" as="geometry">
            <mxPoint x="-11" y="-8" as="offset" />
          </mxGeometry>
        </mxCell>
        <mxCell id="Lg9KEerFZWgA4mFxaKmF-69" style="edgeStyle=orthogonalEdgeStyle;rounded=0;orthogonalLoop=1;jettySize=auto;html=1;exitX=1;exitY=0.25;exitDx=0;exitDy=0;entryX=0;entryY=0.5;entryDx=0;entryDy=0;" parent="1" source="Lg9KEerFZWgA4mFxaKmF-27" target="thysIUYuFrmhhNMiwp32-3" edge="1">
          <mxGeometry relative="1" as="geometry" />
        </mxCell>
        <mxCell id="Lg9KEerFZWgA4mFxaKmF-72" value="alu_op" style="edgeLabel;html=1;align=center;verticalAlign=middle;resizable=0;points=[];" parent="Lg9KEerFZWgA4mFxaKmF-69" vertex="1" connectable="0">
          <mxGeometry x="-0.8835" relative="1" as="geometry">
            <mxPoint x="5" y="-2" as="offset" />
          </mxGeometry>
        </mxCell>
        <mxCell id="Lg9KEerFZWgA4mFxaKmF-70" style="edgeStyle=orthogonalEdgeStyle;rounded=0;orthogonalLoop=1;jettySize=auto;html=1;exitX=1;exitY=0.5;exitDx=0;exitDy=0;entryX=0;entryY=0.5;entryDx=0;entryDy=0;" parent="1" source="Lg9KEerFZWgA4mFxaKmF-27" target="H0akURLOZC4RYbcEf60T-19" edge="1">
          <mxGeometry relative="1" as="geometry" />
        </mxCell>
        <mxCell id="Lg9KEerFZWgA4mFxaKmF-73" value="alu_b_is_imm" style="edgeLabel;html=1;align=center;verticalAlign=middle;resizable=0;points=[];" parent="Lg9KEerFZWgA4mFxaKmF-70" vertex="1" connectable="0">
          <mxGeometry x="-0.8761" y="1" relative="1" as="geometry">
            <mxPoint x="-56" y="318" as="offset" />
          </mxGeometry>
        </mxCell>
        <mxCell id="Lg9KEerFZWgA4mFxaKmF-71" style="edgeStyle=orthogonalEdgeStyle;rounded=0;orthogonalLoop=1;jettySize=auto;html=1;exitX=1;exitY=0.75;exitDx=0;exitDy=0;entryX=0;entryY=0.5;entryDx=0;entryDy=0;" parent="1" source="Lg9KEerFZWgA4mFxaKmF-27" target="H0akURLOZC4RYbcEf60T-15" edge="1">
          <mxGeometry relative="1" as="geometry">
            <Array as="points">
              <mxPoint x="490" y="348" />
              <mxPoint x="490" y="510" />
              <mxPoint x="399" y="510" />
            </Array>
          </mxGeometry>
        </mxCell>
        <mxCell id="Lg9KEerFZWgA4mFxaKmF-74" value="alu_a_is_pc" style="edgeLabel;html=1;align=center;verticalAlign=middle;resizable=0;points=[];" parent="Lg9KEerFZWgA4mFxaKmF-71" vertex="1" connectable="0">
          <mxGeometry x="0.6303" relative="1" as="geometry">
            <mxPoint x="6" y="38" as="offset" />
          </mxGeometry>
        </mxCell>
        <mxCell id="Lg9KEerFZWgA4mFxaKmF-82" style="edgeStyle=orthogonalEdgeStyle;rounded=0;orthogonalLoop=1;jettySize=auto;html=1;exitX=0.25;exitY=0;exitDx=0;exitDy=0;entryX=0.5;entryY=0;entryDx=0;entryDy=0;" parent="1" source="Lg9KEerFZWgA4mFxaKmF-27" target="thysIUYuFrmhhNMiwp32-1" edge="1">
          <mxGeometry relative="1" as="geometry" />
        </mxCell>
        <mxCell id="Lg9KEerFZWgA4mFxaKmF-83" value="regfile_we" style="edgeLabel;html=1;align=center;verticalAlign=middle;resizable=0;points=[];" parent="Lg9KEerFZWgA4mFxaKmF-82" vertex="1" connectable="0">
          <mxGeometry x="0.8881" y="1" relative="1" as="geometry">
            <mxPoint x="-1" y="16" as="offset" />
          </mxGeometry>
        </mxCell>
        <mxCell id="Lg9KEerFZWgA4mFxaKmF-84" style="edgeStyle=orthogonalEdgeStyle;rounded=0;orthogonalLoop=1;jettySize=auto;html=1;exitX=0.5;exitY=0;exitDx=0;exitDy=0;entryX=0;entryY=0.75;entryDx=0;entryDy=0;" parent="1" source="Lg9KEerFZWgA4mFxaKmF-27" target="lGzPU3dBAmZDBw5_QE8P-3" edge="1">
          <mxGeometry relative="1" as="geometry">
            <Array as="points">
              <mxPoint x="425" y="210" />
              <mxPoint x="-70" y="210" />
              <mxPoint x="-70" y="145" />
            </Array>
          </mxGeometry>
        </mxCell>
        <mxCell id="Lg9KEerFZWgA4mFxaKmF-85" value="mem_we" style="edgeLabel;html=1;align=center;verticalAlign=middle;resizable=0;points=[];" parent="Lg9KEerFZWgA4mFxaKmF-84" vertex="1" connectable="0">
          <mxGeometry x="0.7277" y="1" relative="1" as="geometry">
            <mxPoint x="467" y="26" as="offset" />
          </mxGeometry>
        </mxCell>
        <mxCell id="Lg9KEerFZWgA4mFxaKmF-102" style="edgeStyle=orthogonalEdgeStyle;rounded=0;orthogonalLoop=1;jettySize=auto;html=1;exitX=1;exitY=1;exitDx=0;exitDy=0;entryX=1;entryY=0.5;entryDx=0;entryDy=0;" parent="1" source="Lg9KEerFZWgA4mFxaKmF-27" target="Lg9KEerFZWgA4mFxaKmF-101" edge="1">
          <mxGeometry relative="1" as="geometry">
            <Array as="points">
              <mxPoint x="480" y="500" />
              <mxPoint x="345" y="500" />
            </Array>
          </mxGeometry>
        </mxCell>
        <mxCell id="Lg9KEerFZWgA4mFxaKmF-103" value="rd_source" style="edgeLabel;html=1;align=center;verticalAlign=middle;resizable=0;points=[];" parent="Lg9KEerFZWgA4mFxaKmF-102" vertex="1" connectable="0">
          <mxGeometry x="0.9158" y="1" relative="1" as="geometry">
            <mxPoint as="offset" />
          </mxGeometry>
        </mxCell>
        <mxCell id="Lg9KEerFZWgA4mFxaKmF-132" style="edgeStyle=orthogonalEdgeStyle;rounded=0;orthogonalLoop=1;jettySize=auto;html=1;exitX=0.75;exitY=0;exitDx=0;exitDy=0;entryX=0;entryY=0.25;entryDx=0;entryDy=0;" parent="1" source="Lg9KEerFZWgA4mFxaKmF-27" target="Lg9KEerFZWgA4mFxaKmF-131" edge="1">
          <mxGeometry relative="1" as="geometry">
            <Array as="points">
              <mxPoint x="453" y="270" />
              <mxPoint x="515" y="270" />
            </Array>
          </mxGeometry>
        </mxCell>
        <mxCell id="Lg9KEerFZWgA4mFxaKmF-133" value="pc_is_alu" style="edgeLabel;html=1;align=center;verticalAlign=middle;resizable=0;points=[];" parent="Lg9KEerFZWgA4mFxaKmF-132" vertex="1" connectable="0">
          <mxGeometry x="-0.3767" y="-1" relative="1" as="geometry">
            <mxPoint x="14" y="-9" as="offset" />
          </mxGeometry>
        </mxCell>
        <mxCell id="Lg9KEerFZWgA4mFxaKmF-27" value="ctrl_inst" style="rounded=0;whiteSpace=wrap;html=1;fillColor=#d5e8d4;strokeColor=#82b366;" parent="1" vertex="1">
          <mxGeometry x="370" y="280" width="110" height="90" as="geometry" />
        </mxCell>
        <mxCell id="Lg9KEerFZWgA4mFxaKmF-62" style="edgeStyle=orthogonalEdgeStyle;rounded=0;orthogonalLoop=1;jettySize=auto;html=1;exitX=0.25;exitY=1;exitDx=0;exitDy=0;entryX=0;entryY=0.5;entryDx=0;entryDy=0;" parent="1" source="lGzPU3dBAmZDBw5_QE8P-3" target="thysIUYuFrmhhNMiwp32-4" edge="1">
          <mxGeometry relative="1" as="geometry">
            <Array as="points">
              <mxPoint x="153" y="225" />
              <mxPoint y="225" />
              <mxPoint y="325" />
            </Array>
          </mxGeometry>
        </mxCell>
        <mxCell id="Lg9KEerFZWgA4mFxaKmF-63" value="i_inst" style="edgeLabel;html=1;align=center;verticalAlign=middle;resizable=0;points=[];" parent="Lg9KEerFZWgA4mFxaKmF-62" vertex="1" connectable="0">
          <mxGeometry x="0.3136" y="1" relative="1" as="geometry">
            <mxPoint as="offset" />
          </mxGeometry>
        </mxCell>
        <mxCell id="Lg9KEerFZWgA4mFxaKmF-116" style="edgeStyle=orthogonalEdgeStyle;rounded=0;orthogonalLoop=1;jettySize=auto;html=1;exitX=1;exitY=1;exitDx=0;exitDy=0;entryX=0.5;entryY=0;entryDx=0;entryDy=0;" parent="1" source="thysIUYuFrmhhNMiwp32-4" target="Lg9KEerFZWgA4mFxaKmF-114" edge="1">
          <mxGeometry relative="1" as="geometry">
            <Array as="points">
              <mxPoint x="300" y="370" />
              <mxPoint x="300" y="760" />
              <mxPoint x="480" y="760" />
            </Array>
          </mxGeometry>
        </mxCell>
        <mxCell id="thysIUYuFrmhhNMiwp32-4" value="ir_decoder_inst" style="rounded=0;whiteSpace=wrap;html=1;fillColor=#ffe6cc;strokeColor=#d79b00;" parent="1" vertex="1">
          <mxGeometry x="43" y="280" width="210" height="90" as="geometry" />
        </mxCell>
        <mxCell id="Lg9KEerFZWgA4mFxaKmF-136" style="edgeStyle=orthogonalEdgeStyle;rounded=0;orthogonalLoop=1;jettySize=auto;html=1;exitX=1;exitY=0.5;exitDx=0;exitDy=0;entryX=0;entryY=0.75;entryDx=0;entryDy=0;" parent="1" source="Lg9KEerFZWgA4mFxaKmF-21" target="Lg9KEerFZWgA4mFxaKmF-18" edge="1">
          <mxGeometry relative="1" as="geometry">
            <Array as="points">
              <mxPoint x="600" y="495" />
              <mxPoint x="600" y="410" />
            </Array>
          </mxGeometry>
        </mxCell>
        <mxCell id="Lg9KEerFZWgA4mFxaKmF-137" style="edgeStyle=orthogonalEdgeStyle;rounded=0;orthogonalLoop=1;jettySize=auto;html=1;exitX=0.25;exitY=1;exitDx=0;exitDy=0;" parent="1" source="Lg9KEerFZWgA4mFxaKmF-21" edge="1">
          <mxGeometry relative="1" as="geometry">
            <mxPoint x="-400" y="630" as="targetPoint" />
            <Array as="points">
              <mxPoint x="68" y="630" />
            </Array>
          </mxGeometry>
        </mxCell>
        <mxCell id="Lg9KEerFZWgA4mFxaKmF-138" value="unknown_inst" style="edgeLabel;html=1;align=center;verticalAlign=middle;resizable=0;points=[];" parent="Lg9KEerFZWgA4mFxaKmF-137" vertex="1" connectable="0">
          <mxGeometry x="0.7886" relative="1" as="geometry">
            <mxPoint as="offset" />
          </mxGeometry>
        </mxCell>
        <mxCell id="Lg9KEerFZWgA4mFxaKmF-21" value="fsm_inst" style="rounded=0;whiteSpace=wrap;html=1;fillColor=#f8cecc;strokeColor=#b85450;" parent="1" vertex="1">
          <mxGeometry x="41" y="450" width="109" height="90" as="geometry" />
        </mxCell>
        <mxCell id="Lg9KEerFZWgA4mFxaKmF-98" style="edgeStyle=orthogonalEdgeStyle;rounded=0;orthogonalLoop=1;jettySize=auto;html=1;exitX=1;exitY=0.25;exitDx=0;exitDy=0;entryX=1;entryY=0.25;entryDx=0;entryDy=0;" parent="1" source="Lg9KEerFZWgA4mFxaKmF-90" target="lGzPU3dBAmZDBw5_QE8P-3" edge="1">
          <mxGeometry relative="1" as="geometry">
            <Array as="points">
              <mxPoint x="860" y="605" />
              <mxPoint x="860" y="95" />
            </Array>
          </mxGeometry>
        </mxCell>
        <mxCell id="Lg9KEerFZWgA4mFxaKmF-99" value="addr_mem[13:2]" style="edgeLabel;html=1;align=center;verticalAlign=middle;resizable=0;points=[];labelBackgroundColor=#f5f5f5;" parent="Lg9KEerFZWgA4mFxaKmF-98" vertex="1" connectable="0">
          <mxGeometry x="0.9358" y="1" relative="1" as="geometry">
            <mxPoint x="29" y="-9" as="offset" />
          </mxGeometry>
        </mxCell>
        <mxCell id="Lg9KEerFZWgA4mFxaKmF-105" style="edgeStyle=orthogonalEdgeStyle;rounded=0;orthogonalLoop=1;jettySize=auto;html=1;exitX=1;exitY=0.25;exitDx=0;exitDy=0;entryX=0.75;entryY=1;entryDx=0;entryDy=0;" parent="1" source="Lg9KEerFZWgA4mFxaKmF-90" target="Lg9KEerFZWgA4mFxaKmF-101" edge="1">
          <mxGeometry relative="1" as="geometry">
            <Array as="points">
              <mxPoint x="670" y="605" />
              <mxPoint x="670" y="939" />
            </Array>
          </mxGeometry>
        </mxCell>
        <mxCell id="Lg9KEerFZWgA4mFxaKmF-122" style="edgeStyle=orthogonalEdgeStyle;rounded=0;orthogonalLoop=1;jettySize=auto;html=1;exitX=1;exitY=0.75;exitDx=0;exitDy=0;entryX=1;entryY=0.5;entryDx=0;entryDy=0;" parent="1" source="Lg9KEerFZWgA4mFxaKmF-90" target="Lg9KEerFZWgA4mFxaKmF-114" edge="1">
          <mxGeometry relative="1" as="geometry">
            <Array as="points">
              <mxPoint x="720" y="706" />
              <mxPoint x="720" y="825" />
            </Array>
          </mxGeometry>
        </mxCell>
        <mxCell id="Lg9KEerFZWgA4mFxaKmF-123" value="N_reg, Z_reg,&lt;div&gt;C_reg, V_reg&lt;/div&gt;" style="edgeLabel;html=1;align=center;verticalAlign=middle;resizable=0;points=[];" parent="Lg9KEerFZWgA4mFxaKmF-122" vertex="1" connectable="0">
          <mxGeometry x="-0.8719" y="-1" relative="1" as="geometry">
            <mxPoint x="-83" y="103" as="offset" />
          </mxGeometry>
        </mxCell>
        <mxCell id="Lg9KEerFZWgA4mFxaKmF-90" value="F/F" style="rounded=0;whiteSpace=wrap;html=1;" parent="1" vertex="1">
          <mxGeometry x="610" y="553" width="50" height="204" as="geometry" />
        </mxCell>
        <mxCell id="Lg9KEerFZWgA4mFxaKmF-97" value="alu_out" style="text;html=1;align=center;verticalAlign=middle;whiteSpace=wrap;rounded=0;" parent="1" vertex="1">
          <mxGeometry x="540" y="589" width="40" height="30" as="geometry" />
        </mxCell>
        <mxCell id="Lg9KEerFZWgA4mFxaKmF-100" value="alu_out_reg" style="text;html=1;align=center;verticalAlign=middle;whiteSpace=wrap;rounded=0;" parent="1" vertex="1">
          <mxGeometry x="660" y="588" width="70" height="15" as="geometry" />
        </mxCell>
        <mxCell id="Lg9KEerFZWgA4mFxaKmF-104" style="edgeStyle=orthogonalEdgeStyle;rounded=0;orthogonalLoop=1;jettySize=auto;html=1;exitX=0.5;exitY=0;exitDx=0;exitDy=0;entryX=1;entryY=0.5;entryDx=0;entryDy=0;" parent="1" source="Lg9KEerFZWgA4mFxaKmF-101" target="thysIUYuFrmhhNMiwp32-1" edge="1">
          <mxGeometry relative="1" as="geometry" />
        </mxCell>
        <mxCell id="Lg9KEerFZWgA4mFxaKmF-139" value="rd_data" style="edgeLabel;html=1;align=center;verticalAlign=middle;resizable=0;points=[];" parent="Lg9KEerFZWgA4mFxaKmF-104" vertex="1" connectable="0">
          <mxGeometry x="0.6381" y="2" relative="1" as="geometry">
            <mxPoint x="12" y="-10" as="offset" />
          </mxGeometry>
        </mxCell>
        <mxCell id="Lg9KEerFZWgA4mFxaKmF-101" value="" style="shape=trapezoid;perimeter=trapezoidPerimeter;whiteSpace=wrap;html=1;fixedSize=1;direction=south;rotation=-180;" parent="1" vertex="1">
          <mxGeometry x="330" y="914" width="30" height="100" as="geometry" />
        </mxCell>
        <mxCell id="Lg9KEerFZWgA4mFxaKmF-108" style="edgeStyle=orthogonalEdgeStyle;rounded=0;orthogonalLoop=1;jettySize=auto;html=1;exitX=0.5;exitY=1;exitDx=0;exitDy=0;entryX=0.25;entryY=1;entryDx=0;entryDy=0;" parent="1" source="lGzPU3dBAmZDBw5_QE8P-3" target="Lg9KEerFZWgA4mFxaKmF-101" edge="1">
          <mxGeometry relative="1" as="geometry">
            <Array as="points">
              <mxPoint x="355" y="200" />
              <mxPoint x="750" y="200" />
              <mxPoint x="750" y="989" />
            </Array>
          </mxGeometry>
        </mxCell>
        <mxCell id="Lg9KEerFZWgA4mFxaKmF-109" value="read_data" style="edgeLabel;html=1;align=center;verticalAlign=middle;resizable=0;points=[];" parent="Lg9KEerFZWgA4mFxaKmF-108" vertex="1" connectable="0">
          <mxGeometry x="0.8959" y="5" relative="1" as="geometry">
            <mxPoint x="-19" y="2" as="offset" />
          </mxGeometry>
        </mxCell>
        <mxCell id="Lg9KEerFZWgA4mFxaKmF-124" style="edgeStyle=orthogonalEdgeStyle;rounded=0;orthogonalLoop=1;jettySize=auto;html=1;exitX=0;exitY=0.5;exitDx=0;exitDy=0;entryX=0.75;entryY=1;entryDx=0;entryDy=0;" parent="1" source="Lg9KEerFZWgA4mFxaKmF-114" target="Lg9KEerFZWgA4mFxaKmF-21" edge="1">
          <mxGeometry relative="1" as="geometry">
            <Array as="points">
              <mxPoint x="123" y="825" />
            </Array>
          </mxGeometry>
        </mxCell>
        <mxCell id="Lg9KEerFZWgA4mFxaKmF-125" value="is_branch" style="edgeLabel;html=1;align=center;verticalAlign=middle;resizable=0;points=[];" parent="Lg9KEerFZWgA4mFxaKmF-124" vertex="1" connectable="0">
          <mxGeometry x="0.87" y="1" relative="1" as="geometry">
            <mxPoint x="273" y="240" as="offset" />
          </mxGeometry>
        </mxCell>
        <mxCell id="Lg9KEerFZWgA4mFxaKmF-126" style="edgeStyle=orthogonalEdgeStyle;rounded=0;orthogonalLoop=1;jettySize=auto;html=1;exitX=0;exitY=0.5;exitDx=0;exitDy=0;entryX=0;entryY=1;entryDx=0;entryDy=0;" parent="1" source="Lg9KEerFZWgA4mFxaKmF-114" target="Lg9KEerFZWgA4mFxaKmF-27" edge="1">
          <mxGeometry relative="1" as="geometry" />
        </mxCell>
        <mxCell id="Lg9KEerFZWgA4mFxaKmF-114" value="btake_inst" style="rounded=0;whiteSpace=wrap;html=1;fillColor=#d5e8d4;strokeColor=#82b366;" parent="1" vertex="1">
          <mxGeometry x="420" y="790" width="120" height="70" as="geometry" />
        </mxCell>
        <mxCell id="Lg9KEerFZWgA4mFxaKmF-120" value="" style="endArrow=classic;html=1;rounded=0;exitX=0.75;exitY=0;exitDx=0;exitDy=0;entryX=0;entryY=0.733;entryDx=0;entryDy=0;entryPerimeter=0;" parent="1" source="thysIUYuFrmhhNMiwp32-3" target="Lg9KEerFZWgA4mFxaKmF-90" edge="1">
          <mxGeometry width="50" height="50" relative="1" as="geometry">
            <mxPoint x="560" y="670" as="sourcePoint" />
            <mxPoint x="610" y="620" as="targetPoint" />
          </mxGeometry>
        </mxCell>
        <mxCell id="Lg9KEerFZWgA4mFxaKmF-121" value="N, Z, C, V" style="text;html=1;align=center;verticalAlign=middle;whiteSpace=wrap;rounded=0;" parent="1" vertex="1">
          <mxGeometry x="521" y="695" width="60" height="21" as="geometry" />
        </mxCell>
        <mxCell id="Lg9KEerFZWgA4mFxaKmF-127" value="clk" style="text;html=1;align=center;verticalAlign=middle;whiteSpace=wrap;rounded=0;" parent="1" vertex="1">
          <mxGeometry x="-150" y="270" width="30" height="10" as="geometry" />
        </mxCell>
        <mxCell id="Lg9KEerFZWgA4mFxaKmF-129" value="locked" style="text;html=1;align=center;verticalAlign=middle;whiteSpace=wrap;rounded=0;" parent="1" vertex="1">
          <mxGeometry x="-190" y="391" width="40" height="20" as="geometry" />
        </mxCell>
        <mxCell id="Lg9KEerFZWgA4mFxaKmF-134" style="edgeStyle=orthogonalEdgeStyle;rounded=0;orthogonalLoop=1;jettySize=auto;html=1;exitX=1;exitY=0.25;exitDx=0;exitDy=0;entryX=0;entryY=0.25;entryDx=0;entryDy=0;" parent="1" source="Lg9KEerFZWgA4mFxaKmF-131" target="Lg9KEerFZWgA4mFxaKmF-18" edge="1">
          <mxGeometry relative="1" as="geometry" />
        </mxCell>
        <mxCell id="Lg9KEerFZWgA4mFxaKmF-131" value="F/F" style="rounded=0;whiteSpace=wrap;html=1;" parent="1" vertex="1">
          <mxGeometry x="550" y="250" width="40" height="80" as="geometry" />
        </mxCell>
        <mxCell id="Lg9KEerFZWgA4mFxaKmF-135" value="pc_is_alu_reg" style="edgeLabel;html=1;align=center;verticalAlign=middle;resizable=0;points=[];" parent="1" vertex="1" connectable="0">
          <mxGeometry x="514.9971145125115" y="225" as="geometry">
            <mxPoint x="111" y="26" as="offset" />
          </mxGeometry>
        </mxCell>
      </root>
    </mxGraphModel>
  </diagram>
</mxfile>
